<svg xmlns="http://www.w3.org/2000/svg" viewBox="0 0 1454 696" fill="currentColor" fill-rule="evenodd"><path d="M589 260.5L589 185.5L587 172.5L582 157.5L576 146.5L562.5 132L540.5 120L523.5 116L507.5 115L473.5 118L452.5 124L437 131.5L437.5 172L464.5 164L495.5 162L505.5 164L516.5 170L526 183.5L528 190.5L528.5 334L589 333.5L589 260.5ZM0 187.5L0.5 334L57.5 334L58 294.5L59.5 292L62 299.5L69 310.5L84.5 325L98.5 332L120.5 337L141.5 337L161.5 332L175.5 324L192 306.5L198 294.5L204 270.5L203.5 117L144 117.5L144 254.5L140 268.5L136 275.5L129.5 282L121.5 286L115.5 288L92.5 288L81.5 284L69 272.5L62 258.5L60 248.5L59.5 117L0 117.5L0 187.5ZM1188 123.5L1172.5 118L1146.5 115L1124.5 116L1105.5 120L1093.5 124L1072.5 137L1064 146.5L1056 160.5L1053 172.5L1054 196.5L1062 212.5L1072.5 223L1098.5 236L1159.5 252L1169.5 257L1175 262.5L1177 267.5L1177 272.5L1174 279.5L1166.5 286L1149.5 291L1135.5 291L1124.5 288L1113.5 282L1108 276.5L1102.5 266L1051.5 266L1052 281.5L1056 293.5L1062 303.5L1073.5 316L1093.5 328L1112.5 334L1135.5 337L1151.5 337L1173.5 334L1192.5 328L1207.5 320L1219 310.5L1230 294.5L1234 281.5L1234 257.5L1228 241.5L1213.5 226L1203.5 220L1200.5 220L1199.5 218L1182.5 212L1136.5 202L1120.5 196L1111 187.5L1110 184.5L1112 173.5L1118.5 167L1131.5 162L1145.5 161L1154.5 162L1167.5 167L1176 175.5L1180.5 186L1231.5 186L1232 172.5L1222 148.5L1205.5 132L1188 123.5ZM594 636.5L589 629.5L584 611.5L584 476.5L523 476.5L523 611.5L524 631.5L529 651.5L536 665.5L544 675.5L560.5 688L585.5 696L610.5 696L629.5 691L646.5 682L659 669.5L668.5 651L670 652.5L670.5 693L728 692.5L727.5 476L668 476.5L668 609.5L664 623.5L657 634.5L649.5 641L639.5 646L629.5 648L608.5 646L594 636.5ZM1166 657.5L1166.5 693L1221.5 693L1247.5 684L1263.5 673L1280 655.5L1292 631.5L1298 603.5L1298 573.5L1243.5 573L1242 574.5L1242 606.5L1243.5 608L1257.5 608L1258 617.5L1252 634.5L1246 643.5L1238.5 652L1226.5 660L1225 658.5L1226 534.5L1232.5 524L1237.5 522L1247.5 522L1258 530.5L1261.5 543L1283.5 543L1286 531.5L1292.5 524L1295.5 524L1296.5 522L1307.5 522L1316 528.5L1319 540.5L1319 692.5L1377.5 693L1379 690.5L1378 524.5L1373 505.5L1366 492.5L1354.5 482L1341.5 476L1331.5 474L1311.5 474L1298.5 477L1288.5 482L1280 489.5L1272.5 504L1267 493.5L1257.5 483L1243.5 476L1233.5 474L1213.5 474L1197.5 478L1184.5 486L1172 503.5L1166 524.5L1166 657.5ZM1139 396.5L1139 379.5L1137.5 378L1086.5 378L1086 407.5L1084.5 409L946.5 409L945 410.5L945 443.5L1138.5 444L1139 396.5ZM864.5 220L873.5 220L885 223.5L872.5 227L859.5 234L850 243.5L844 253.5L840 265.5L840.5 334L900 333.5L900 268.5L902 252.5L912 233.5L927 223.5L927 209.5L886.5 201L884 198.5L890 181.5L898.5 172L904.5 168L920.5 163L938.5 163L947.5 165L957.5 170L966 178.5L972 188.5L975 206.5L975 332.5L976.5 334L1036 333.5L1036 198.5L1034 182.5L1024 156.5L1018 148.5L999.5 132L971.5 120L951.5 116L931.5 115L896.5 118L870.5 128L856.5 138L841 157.5L832 180.5L829 202.5L830.5 214L860.5 218L864.5 220ZM465 680.5L481.5 668L494 651.5L502 633.5L508 610.5L510 587.5L508 558.5L503 538.5L496 522.5L480 501.5L468.5 492L447.5 481L429.5 476L414.5 474L380.5 476L365.5 480L340.5 492L324 506.5L315 518.5L308 532.5L304 549.5L361.5 550L368 537.5L384.5 526L398.5 523L419.5 525L432.5 532L439 538.5L448 554.5L452 573.5L450 608.5L442 629.5L430.5 641L419.5 646L407.5 648L387.5 646L376.5 642L368 635.5L363 623.5L364 611.5L368.5 604L374.5 602L407.5 602L408 567.5L352.5 567L334.5 570L327.5 573L317 581.5L308 597.5L306 607.5L306 629.5L310 644.5L316 656.5L333.5 676L344.5 683L360.5 690L382.5 695L419.5 696L431.5 694L451.5 688L465 680.5ZM617 269.5L618 283.5L622 298.5L632 315.5L640.5 323L653.5 330L670.5 334L712 333.5L712 293.5L688.5 291L682 285.5L678 276.5L678 122.5L676.5 117L617 117.5L617 269.5ZM771.5 693L816 692.5L816 615.5L824 596.5L832.5 588L842 582.5L842 568.5L800.5 560L800 552.5L805 540.5L814.5 530L834.5 522L854.5 522L863.5 524L880 535.5L888 551.5L890 562.5L890 692.5L949.5 693L951 691.5L950 546.5L946 530.5L941 519.5L934 508.5L922.5 497L898.5 483L882.5 478L855.5 474L833.5 474L816.5 476L791.5 484L777.5 492L761 508.5L748 535.5L744 556.5L744 571.5L793.5 580L800 582.5L782.5 588L773.5 594L762 606.5L756 620.5L755 692.5L771.5 693ZM1059.5 696L1071.5 696L1100.5 690L1115.5 684L1132.5 672L1140 663.5L1147 651.5L1151 629.5L1150 617.5L1144 600.5L1130.5 586L1119.5 579L1101.5 572L1056.5 562L1038.5 556L1029.5 550L1026 543.5L1028 532.5L1036.5 525L1052.5 520L1070.5 521L1081.5 525L1092 534.5L1096.5 545L1147.5 545L1148 532.5L1144 518.5L1139 509.5L1127.5 496L1116.5 488L1101.5 481L1084.5 476L1049.5 474L1032.5 476L1007.5 484L993.5 492L984 500.5L976 511.5L970 525.5L970 555.5L978 571.5L988.5 582L996.5 587L1017.5 596L1065.5 608L1085.5 616L1092 622.5L1092 635.5L1085.5 643L1075.5 648L1066.5 650L1051.5 650L1033.5 644L1024 635.5L1017.5 625L970.5 625L966 627.5L968 640.5L976 659.5L982 667.5L996.5 680L1024.5 692L1048.5 696L1059.5 696ZM736.5 117L728 117.5L728 273.5L732 294.5L742 313.5L750.5 322L760.5 328L770.5 332L782.5 334L821.5 334L823 331.5L822 293.5L801.5 292L793 285.5L788 273.5L788 117.5L736.5 117ZM383.5 208L395.5 204L403.5 199L416 186.5L420 179.5L424 168.5L426 155.5L426 118.5L424.5 117L365.5 117L365 155.5L362 171.5L358 178.5L347.5 188L335.5 193L291.5 200L284 199.5L284 117.5L224.5 117L224 333.5L283.5 334L284 240.5L314.5 236L339.5 235L346.5 236L354.5 240L360 245.5L364 253.5L365 333.5L424.5 334L426 331.5L426 265.5L422 242.5L414 228.5L405.5 221L392.5 215L375 211.5L383.5 208ZM1344 261.5L1296 117.5L1236.5 117L1240 131.5L1315.5 334L1391.5 334L1394 331.5L1432 257.5L1450 209.5L1454 189.5L1454 166.5L1452 154.5L1446 140.5L1433.5 128L1413.5 120L1391.5 117L1347 117.5L1347 157.5L1375.5 158L1385.5 162L1391 167.5L1393 172.5L1394 193.5L1390 212.5L1380 243.5L1363 283.5L1356.5 293L1354 291.5L1352 286.5L1344 261.5ZM198.5 475L170.5 474L151.5 476L122.5 484L99.5 498L89 508.5L80 522.5L76 532.5L72 552.5L72 579.5L74 603.5L83 652.5L83 691.5L84.5 693L143.5 693L144 657.5L156 636.5L163.5 628L175.5 620L185.5 617L200.5 617L202 615.5L202 572.5L182.5 572L166.5 580L156 590.5L145 607.5L136 627.5L133 595.5L133 564.5L136 549.5L140 540.5L147.5 532L160.5 524L170.5 522L191.5 522L199.5 524L214.5 533L225 548.5L228 560.5L228 692.5L288 692.5L288 548.5L282 524.5L272 507.5L255.5 492L228.5 480L198.5 475ZM1167 45.5L1167 83.5L1168.5 86L1218.5 86L1220 83.5L1219 1.5L1215.5 0L1168.5 0L1167 2.5L1167 45.5Z"/></svg>